<svg id="Capa_1" xmlns="http://www.w3.org/2000/svg" viewBox="0 0 494.6 494.6"><style>.st0{fill:#68d935}</style><path class="st0" d="M492 79.2c-2.8-4.6-7.4-7.9-12.6-9L199.2 2.7C190 .9 180.9 6 177.7 14.8L70.8 286.2l35.7 13 101.2-258 243.4 62.1c-15.2 47.1-51.4 145.5-86.1 237.1-30.2 79.9-47.6 107.3-80.7 112.9l-.1-.1c-67.6 9.5-66.4-76.7-66.4-76.7L2.1 289.3c-15.3 97.2 59.4 120.6 59.4 120.6l158 71.8s24.7 11.8 51.5 10.6c72.3-1.7 97.7-54.2 129.6-138.4 46-121.6 92.7-257.8 93.2-259.3 1.6-5.2.9-10.8-1.8-15.4z"/><path class="st0" d="M364.3 188.6c1.6.4 3.4.7 5 .7 8.3 0 15.9-5.6 18.3-14 2.8-10.1-3.2-20.6-13.3-23.3L292 126.6c-10-2.8-20.6 3.2-23.3 13.3-2.8 10.1 3.2 20.6 13.3 23.3l82.3 25.4zm-128.5 27.3c-3.3 10 2.1 20.7 12 24l81.8 29.2c2 .7 3.9 1 5.9 1 8 0 15.5-5 18.1-13 3.3-9.9-2-20.7-12-24L259.8 204c-10-3.3-20.7 2-24 11.9zm-7.2 67.3c-10-3.3-20.7 2.1-24 12.1-3.3 9.9 2.2 20.7 12.1 23.9l82 29.1c2 .7 3.9 1 5.9 1 8 0 15.4-5.1 18-13 3.3-10-2.2-20.7-12.1-24l-81.9-29.1zm-3-178.7c11.6 0 21 9.2 21 20.5s-9.4 20.5-21 20.5-21.1-9.2-21.1-20.5 9.4-20.5 21.1-20.5zm-29.8 76.1c11.6 0 21 9.2 21 20.4 0 11.3-9.4 20.4-21 20.4s-21.1-9.2-21.1-20.4c0-11.3 9.5-20.4 21.1-20.4zM164 259c11.6 0 21.1 9.2 21.1 20.5s-9.4 20.4-21.1 20.4c-11.6 0-21.1-9.1-21.1-20.4.1-11.3 9.5-20.5 21.1-20.5z"/></svg>