<?xml version="1.0" encoding="utf-8"?>
<!-- Generator: Adobe Illustrator 22.0.1, SVG Export Plug-In . SVG Version: 6.00 Build 0)  -->
<svg version="1.1" id="Layer_1" xmlns="http://www.w3.org/2000/svg" xmlns:xlink="http://www.w3.org/1999/xlink" x="0px" y="0px"
	 viewBox="0 0 64 64" style="enable-background:new 0 0 64 64;" xml:space="preserve">
<style type="text/css">
	.st0{enable-background:new    ;}
	.st1{fill:#FFFFFF;}
</style>
<g id="ARROW__x2F__UP_1_" class="st0">
	<g id="ARROW__x2F__UP">
		<g>
			<path class="st1" d="M52.2,38.9L52.2,38.9l-18-18l0,0C33.6,20.4,32.8,20,32,20c0,0,0,0,0,0s0,0,0,0c-0.8,0-1.6,0.4-2.2,0.9l0,0
				l-18,18l0,0C11.3,39.5,11,40.2,11,41c0,1.7,1.3,3,3,3c0.9,0,1.7-0.4,2.3-1L32,27.2l15.9,15.9l0,0c0.5,0.5,1.3,0.8,2.1,0.8
				c1.7,0,3-1.3,3-3C53,40.2,52.7,39.5,52.2,38.9z"/>
		</g>
	</g>
</g>
</svg>
