<?xml version="1.0" encoding="utf-8"?>
<!-- Generator: Adobe Illustrator 22.0.1, SVG Export Plug-In . SVG Version: 6.00 Build 0)  -->
<svg version="1.1" id="Layer_1" xmlns="http://www.w3.org/2000/svg" xmlns:xlink="http://www.w3.org/1999/xlink" x="0px" y="0px"
	 viewBox="0 0 42.1 24" style="enable-background:new 0 0 42.1 24;" xml:space="preserve">
<style type="text/css">
	.st0{enable-background:new    ;}
	.st1{fill:#FFFFFF;}
</style>
<g id="ARROW__x2F__UP_1_" class="st0">
	<g id="ARROW__x2F__UP">
		<g>
			<path class="st1" d="M41.2,19L41.2,19l-18-18l0,0c-0.5-0.6-1.3-0.9-2.2-0.9c0,0,0,0,0,0s0,0,0,0c-0.8,0-1.6,0.4-2.2,0.9l0,0
				l-18,18l0,0c-0.5,0.5-0.8,1.3-0.8,2.1c0,1.7,1.3,3,3,3c0.9,0,1.7-0.4,2.3-1L21.1,7.3L37,23.2l0,0c0.5,0.5,1.3,0.8,2.1,0.8
				c1.7,0,3-1.3,3-3C42.1,20.3,41.8,19.5,41.2,19z"/>
		</g>
	</g>
</g>
</svg>
