<?xml version="1.0" encoding="utf-8"?>
<!-- Generator: Adobe Illustrator 22.0.1, SVG Export Plug-In . SVG Version: 6.00 Build 0)  -->
<svg version="1.1" id="Capa_1" xmlns="http://www.w3.org/2000/svg" xmlns:xlink="http://www.w3.org/1999/xlink" x="0px" y="0px"
	 viewBox="0 0 494.6 494.6" style="enable-background:new 0 0 494.6 494.6;" xml:space="preserve">
<style type="text/css">
	.st0{fill:#68D935;}
</style>
<g>
	<g>
		<path class="st0" d="M492,79.2c-2.8-4.6-7.4-7.9-12.6-9L199.2,2.7c-9.2-1.8-18.3,3.3-21.5,12.1L70.8,286.2l35.7,13l101.2-258
			l243.4,62.1c-15.2,47.1-51.4,145.5-86.1,237.1c-30.2,79.9-47.6,107.3-80.7,112.9c0,0-0.1-0.1-0.1-0.1
			c-67.6,9.5-66.4-76.7-66.4-76.7L2.1,289.3c-15.3,97.2,59.4,120.6,59.4,120.6l158,71.8c0,0,24.7,11.8,51.5,10.6
			c72.3-1.7,97.7-54.2,129.6-138.4c46-121.6,92.7-257.8,93.2-259.3C495.4,89.4,494.7,83.8,492,79.2z"/>
		<path class="st0" d="M364.3,188.6c1.6,0.4,3.4,0.7,5,0.7c8.3,0,15.9-5.6,18.3-14c2.8-10.1-3.2-20.6-13.3-23.3L292,126.6
			c-10-2.8-20.6,3.2-23.3,13.3c-2.8,10.1,3.2,20.6,13.3,23.3L364.3,188.6z"/>
		<path class="st0" d="M235.8,215.9c-3.3,10,2.1,20.7,12,24l81.8,29.2c2,0.7,3.9,1,5.9,1c8,0,15.5-5,18.1-13c3.3-9.9-2-20.7-12-24
			L259.8,204C249.8,200.7,239.1,206,235.8,215.9z"/>
		<path class="st0" d="M228.6,283.2c-10-3.3-20.7,2.1-24,12.1c-3.3,9.9,2.2,20.7,12.1,23.9l82,29.1c2,0.7,3.9,1,5.9,1
			c8,0,15.4-5.1,18-13c3.3-10-2.2-20.7-12.1-24L228.6,283.2z"/>
		<path class="st0" d="M225.6,104.5c11.6,0,21,9.2,21,20.5c0,11.3-9.4,20.5-21,20.5c-11.6,0-21.1-9.2-21.1-20.5
			C204.5,113.7,213.9,104.5,225.6,104.5z"/>
		<path class="st0" d="M195.8,180.6c11.6,0,21,9.2,21,20.4c0,11.3-9.4,20.4-21,20.4c-11.6,0-21.1-9.2-21.1-20.4
			C174.7,189.7,184.2,180.6,195.8,180.6z"/>
		<path class="st0" d="M164,259c11.6,0,21.1,9.2,21.1,20.5c0,11.3-9.4,20.4-21.1,20.4c-11.6,0-21.1-9.1-21.1-20.4
			C143,268.2,152.4,259,164,259z"/>
	</g>
</g>
</svg>
