<?xml version="1.0" encoding="utf-8"?>
<!-- Generator: Adobe Illustrator 22.0.1, SVG Export Plug-In . SVG Version: 6.00 Build 0)  -->
<svg version="1.1" id="Режим_ізоляції"
	 xmlns="http://www.w3.org/2000/svg" xmlns:xlink="http://www.w3.org/1999/xlink" x="0px" y="0px" viewBox="0 0 286.3 233"
	 style="enable-background:new 0 0 286.3 233;" xml:space="preserve">
<style type="text/css">
	.st0{fill-rule:evenodd;clip-rule:evenodd;fill:#6DA858;stroke:#FFFFFF;stroke-miterlimit:22.9256;}
	.st1{fill-rule:evenodd;clip-rule:evenodd;fill:#FFFFFF;}
	.st2{fill-rule:evenodd;clip-rule:evenodd;fill:#6DA858;}
	.st3{fill:#6DA858;}
	.st4{fill:#DA7443;}
</style>
<g>
	<path class="st0" d="M287.1,176.6c-39.3,8.9-49.1-1.8-55.9-12.6c-7.8-12.4,2.6-33,22.4-49c-45.3,3.3-55.1-9.2-57.9-16.5
		c-2.9-7.5-2.8-12.8,7.6-31.6C154.9,65.1,135,33,125.8,3.9c-1.1,0-2,0.1-3.2,0.1c-24.4,1.7-11.7,34.5-21,30.7
		C76,24.2,38.9,20.4,49.9,66.7c-16.5-5.2-69.7,12.2-30.1,66.7c-30.5,10.1-23.6,32.4-3.8,48.4c-21.2,21.2,1.2,36.2,11.8,32.7
		c1,6.7,8.8,18.9,23.4,15.9c3.8-0.8,38.3-11.9,42.4-11.2c56.9,10.2,125.7,21.3,171.5-16C271.6,197.9,283.4,186.2,287.1,176.6
		L287.1,176.6z"/>
	<path class="st1" d="M285.4,177.8c-35.5,8-53.9,4.1-60.3-13.1c-5.4-17.5,5.6-32.1,20.4-46.8c-45.9,1.8-51.4-12.1-53.3-15.2
		c-7.3-16.3,1.1-22.9,10.3-35.2C161.1,73.4,131,37.5,125,9c-0.1-0.6,0.9-5.2,0.7-5.9c-1,0-10.1-3.3-9.5-2.8c2.7,2.1,4.6,6.9,4.1,7
		c-19.5,3.2-2.7,30.1-22.4,30.1c-27.7-3.4-46.3-1.9-45,32.8c-13.9,2.3-66,6.5-29.8,64.2c-13.5,7-31.4,15.9-3.8,47.2
		c-4,2.6-12,7.8-7.2,20.8c1.8,4.1,5.6,11.8,16.6,10.3c6.3,27.1,45.7,2.3,53.4,0.7c26.2-5.3-21.2,16.7,93.9,20.3
		c12.8,0.4,12.5-10.7,24.5-13.8c12.1-3.1,27.8,0.8,44.8-7.6C262.3,204,279.5,190.5,285.4,177.8L285.4,177.8z"/>
	<path class="st2" d="M199.3,164.8c1.1,5,1.8,9.1,2.9,14.2c0.2,0.8,0.3,2.4-1.6,2.6l-1.6,0.2c-0.8,0.1-1-0.3-1.3-1.4l0.2,0
		c-7.1,0.9-13.5,0.4-18-1.9l-5.7,0.8L101,189l2.8,12.1c-23.6,3.8-39.9-0.7-49.4-8.6c5.3-10,18.6-18.5,42.5-21.3l2.8,12.1l73.3-10.5
		l0,0l5.7-0.8c3.2-3.4,10.8-6,16-6.7c-0.1-1.2,0.6-1.6,1.5-1.7l0.9-0.1C198.3,163.4,199.1,164,199.3,164.8L199.3,164.8z M88.7,187.7
		l0,0.2c1.8-0.3,3.4-0.5,4.1-0.6c0.1,0,0.2,0,0.3,0h0c0.3,0,0.4,0,0.6,0.1c0.1,0,0.2,0.1,0.2,0.1l0,0.2c0,0.1,0.1,0.3,0.1,0.6l0,0
		l0,0l0,0l0.7,3.2c0,0.2-0.3,0.3-0.8,0.4l-0.1,0c-0.5,0.1-0.6-0.2-0.6-0.4l-0.7-3.2c-3.3,0.5-7.1,1.2-10.4,1.6l-0.5-2.2l10.4-1.9
		l-0.7-3c0-0.2-0.2-0.4,0.4-0.5l0,0c0.5-0.1,1,0,1.1,0.2l0.7,3.2l0,0l0,0l0,0c0.1,0.2,0.1,0.4,0.1,0.6l0,0.2c0,0.1,0,0.1-0.1,0.2
		c-0.1,0.1-0.2,0.1-0.5,0.2l0,0c-0.1,0-0.2,0-0.3,0.1C92.1,187.2,90.4,187.4,88.7,187.7L88.7,187.7z M180.5,172.3
		c3.3-3.3,9.4-4.3,14.5-5.6c0.8,3.5,1.7,8.7,2.5,12.2c-5.2,0.6-11.7,0.9-16.3-1.3L180.5,172.3L180.5,172.3z M177.5,177L99,187.8
		l2.4,11c-18.3,1.5-32.7,1.1-42.3-7.1c4.9-9.6,18.2-15.4,36.9-17.6l2.5,10.9l78.5-11.2L177.5,177L177.5,177z"/>
	<path class="st3" d="M124.1,205.2v-10.8h1.4v9.5h5.4v1.3H124.1L124.1,205.2z M133.5,205.2l4.2-10.8h1.6l4.5,10.8h-1.6l-1.3-3.3
		h-4.6l-1.2,3.3H133.5L133.5,205.2z M136.7,200.8h3.7l-1.1-3c-0.3-0.9-0.6-1.7-0.8-2.2c-0.1,0.7-0.3,1.4-0.6,2.1L136.7,200.8
		L136.7,200.8z M147,205.2v-10.8h1.5l5.7,8.5v-8.5h1.4v10.8h-1.5l-5.7-8.5v8.5H147L147,205.2z M160.1,205.2v-10.8h3.8
		c0.8,0,1.5,0.1,1.9,0.2c0.6,0.1,1.2,0.4,1.6,0.8c0.6,0.5,1,1.1,1.3,1.8c0.3,0.8,0.4,1.6,0.4,2.6c0,0.8-0.1,1.5-0.3,2.2
		c-0.2,0.6-0.4,1.2-0.7,1.6c-0.3,0.4-0.6,0.7-1,1c-0.4,0.2-0.8,0.4-1.3,0.5c-0.5,0.1-1.1,0.2-1.8,0.2H160.1L160.1,205.2z
		 M161.6,203.9h2.3c0.7,0,1.3-0.1,1.7-0.2c0.4-0.1,0.7-0.3,1-0.6c0.3-0.3,0.6-0.8,0.8-1.4c0.2-0.6,0.3-1.3,0.3-2.1
		c0-1.1-0.2-2-0.6-2.6c-0.4-0.6-0.8-1-1.4-1.2c-0.4-0.1-1-0.2-1.9-0.2h-2.3V203.9L161.6,203.9z M172.8,201.7l1.4-0.1
		c0.1,0.5,0.2,1,0.5,1.3c0.2,0.3,0.6,0.6,1.1,0.8s1.1,0.3,1.7,0.3c0.6,0,1-0.1,1.5-0.2c0.4-0.2,0.7-0.4,0.9-0.7
		c0.2-0.3,0.3-0.6,0.3-0.9c0-0.3-0.1-0.6-0.3-0.9c-0.2-0.3-0.5-0.5-1-0.6c-0.3-0.1-0.9-0.3-1.9-0.5c-1-0.2-1.7-0.5-2.1-0.7
		c-0.5-0.3-0.9-0.6-1.2-1c-0.3-0.4-0.4-0.8-0.4-1.3c0-0.5,0.2-1.1,0.5-1.5c0.3-0.5,0.8-0.8,1.4-1.1c0.6-0.2,1.3-0.4,2-0.4
		c0.8,0,1.5,0.1,2.1,0.4c0.6,0.3,1.1,0.6,1.4,1.1c0.3,0.5,0.5,1.1,0.5,1.7l-1.4,0.1c-0.1-0.7-0.3-1.2-0.8-1.5
		c-0.4-0.4-1.1-0.5-1.9-0.5c-0.9,0-1.5,0.2-1.9,0.5c-0.4,0.3-0.6,0.7-0.6,1.1c0,0.4,0.1,0.7,0.4,1c0.3,0.3,1,0.5,2.2,0.8
		c1.2,0.3,2,0.5,2.4,0.7c0.6,0.3,1.1,0.7,1.4,1.1c0.3,0.4,0.5,1,0.5,1.5c0,0.6-0.2,1.1-0.5,1.6c-0.3,0.5-0.8,0.9-1.4,1.2
		c-0.6,0.3-1.3,0.4-2.1,0.4c-1,0-1.8-0.1-2.5-0.4c-0.7-0.3-1.2-0.7-1.6-1.3C173,203.1,172.8,202.5,172.8,201.7L172.8,201.7z
		 M193.3,201.4l1.4,0.4c-0.3,1.2-0.8,2.1-1.6,2.7c-0.8,0.6-1.7,0.9-2.9,0.9c-1.2,0-2.1-0.2-2.9-0.7c-0.7-0.5-1.3-1.2-1.7-2.1
		c-0.4-0.9-0.6-1.9-0.6-2.9c0-1.1,0.2-2.1,0.7-2.9c0.4-0.8,1.1-1.5,1.9-1.9c0.8-0.4,1.7-0.7,2.6-0.7c1.1,0,2,0.3,2.8,0.8
		c0.7,0.6,1.3,1.3,1.6,2.3l-1.4,0.3c-0.3-0.8-0.6-1.4-1.1-1.7c-0.5-0.4-1.1-0.5-1.8-0.5c-0.8,0-1.5,0.2-2.1,0.6
		c-0.6,0.4-1,0.9-1.2,1.6c-0.2,0.7-0.3,1.4-0.3,2.1c0,0.9,0.1,1.7,0.4,2.4c0.3,0.7,0.7,1.2,1.3,1.5c0.6,0.3,1.2,0.5,1.9,0.5
		c0.8,0,1.5-0.2,2.1-0.7C192.7,203,193.1,202.3,193.3,201.4L193.3,201.4z M197.4,205.2l4.2-10.8h1.6l4.5,10.8H206l-1.3-3.3h-4.6
		l-1.2,3.3H197.4L197.4,205.2z M200.6,200.8h3.7l-1.1-3c-0.3-0.9-0.6-1.7-0.8-2.2c-0.1,0.7-0.3,1.4-0.6,2.1L200.6,200.8L200.6,200.8
		z M210.9,205.2v-10.8h4.1c0.7,0,1.3,0,1.7,0.1c0.5,0.1,1,0.3,1.3,0.5c0.4,0.2,0.7,0.6,0.9,1c0.2,0.4,0.3,0.9,0.3,1.5
		c0,0.9-0.3,1.7-0.9,2.3c-0.6,0.6-1.7,1-3.2,1h-2.8v4.4H210.9L210.9,205.2z M212.4,199.5h2.8c0.9,0,1.6-0.2,2-0.5
		c0.4-0.3,0.6-0.8,0.6-1.5c0-0.5-0.1-0.8-0.3-1.2c-0.2-0.3-0.5-0.5-0.9-0.6c-0.2-0.1-0.7-0.1-1.3-0.1h-2.8V199.5L212.4,199.5z
		 M223.2,205.2v-10.8h7.9v1.3h-6.4v3.3h6v1.3h-6v3.7h6.7v1.3H223.2L223.2,205.2z"/>
	<path class="st4" d="M53.5,78.4c1.7,0,3.2,0.2,4.5,0.5c1.3,0.3,2.6,0.8,3.9,1.3c1.3,0.5,2.2,0.8,2.5,0.8c0.5,0,0.9-0.1,1.4-0.2
		c0.5-0.1,0.9-0.2,1.2-0.2c0.9,0,1.7,0.4,2.6,1.1c0.9,0.7,1.6,1.8,2.2,3.1c0.6,1.4,0.8,2.9,0.8,4.7c0,1.5-0.5,2.8-1.5,3.8
		c-1,1-2.3,1.6-4,1.6c-1.3,0-2.3-0.3-2.8-0.8c-0.6-0.6-1.5-1.7-2.7-3.3c-1.2-1.7-2.5-2.9-3.8-3.7c-1.3-0.8-3.2-1.2-5.5-1.2
		c-1.4,0-2.6,0.3-3.5,1c-1,0.7-1.7,1.5-2.1,2.5c-0.5,1-0.7,2-0.7,3c0,1.9,0.3,3.7,0.8,5.4c0.6,1.7,1.4,3.2,2.5,4.5
		c1.1,1.3,2.5,2.4,4,3.1c1.6,0.7,3.4,1.1,5.4,1.1c2.2,0,3.9-0.2,5.1-0.7c1.2-0.5,2.3-1.1,3.2-1.8c0.9-0.7,1.6-1.1,2-1.1
		c0.8,0,1.4,0.3,1.8,1c0.5,0.6,0.7,1.3,0.7,2.1c0,0.8-0.3,1.7-0.8,2.9c-0.5,1.1-1.3,2.1-2.1,2.9c-0.9,0.8-1.8,1.2-2.7,1.2
		c-0.5,0-1.5,0.3-3.1,0.9c-1.6,0.6-3.1,1.1-4.6,1.5c-1.5,0.4-3.3,0.6-5.3,0.6c-4,0-7.7-0.9-11.1-2.6c-3.4-1.7-6.1-4-8.1-6.9
		c-2-2.9-3-6.1-3-9.4c0-2.6,0.6-5,1.9-7.3c1.3-2.3,3-4.3,5.2-6c2.2-1.7,4.6-3,7.4-4C47.8,78.9,50.6,78.4,53.5,78.4L53.5,78.4z
		 M96.2,96.7c1-1.9,1.7-3.4,2.2-4.5c0.5-1.1,1-2.3,1.4-3.7c0.4-1.3,0.6-2.7,0.6-3.9c0-1.9,0.6-3.4,1.7-4.6c1.1-1.1,2.9-1.7,5.4-1.7
		c2.2,0,4.2,0.7,5.8,2.2c1.6,1.5,3.2,3.4,4.8,5.8c0.5,0.8,2.4,4.1,5.7,9.9c3.2,5.8,5.3,9.7,6.3,11.6c0.4,0.9,0.9,1.5,1.4,1.8
		c0.5,0.3,1.1,0.6,1.8,0.8c0.7,0.2,1.2,0.4,1.4,0.6c0.3,0.2,0.4,0.6,0.4,1.3c0,1.1-0.6,1.8-1.8,2.4c-1.2,0.5-2.6,0.9-4.1,1
		c-1.6,0.1-3.3,0.2-5.3,0.2c-3.5,0-6-0.1-7.7-0.2c-1.7-0.1-3.1-0.4-4.1-0.9c-1-0.5-1.5-1.2-1.5-2.2c0-0.5,0.2-1,0.5-1.2
		c0.3-0.3,0.8-0.5,1.4-0.7c0.6-0.2,1-0.4,1.3-0.5c0.3-0.2,0.4-0.5,0.4-0.9c0-0.8-0.3-1.4-0.8-1.7c-0.5-0.3-1.5-0.6-2.9-0.7
		c-1.4-0.1-3.8-0.2-7.2-0.2c-1.8,0-3,0.1-3.8,0.4c-0.7,0.3-1.1,1-1.1,2.2c0,0.4,0.1,0.7,0.4,0.9c0.3,0.2,0.7,0.3,1.4,0.5
		c0.6,0.2,1.1,0.4,1.4,0.7c0.3,0.2,0.5,0.7,0.5,1.3c0,2.1-2.9,3.1-8.6,3.1c-2.6,0-4.6-0.1-5.9-0.4c-1.3-0.3-2.2-0.6-2.6-1
		c-0.4-0.4-0.6-1-0.6-1.6c0-0.7,0.2-1.2,0.5-1.4c0.4-0.2,1.1-0.5,2.1-0.9c1-0.4,1.8-0.8,2.2-1.3c0.7-0.8,1.8-2.6,3.4-5.5L96.2,96.7
		L96.2,96.7z M108.4,100.4c1.6,0,2.3-0.2,2.3-0.7c0-0.5-0.7-1.9-2.2-4.2c-0.5-0.9-1-1.5-1.4-2c-0.4-0.5-0.9-0.7-1.4-0.7
		c-0.4,0-0.8,0.2-1.1,0.7c-0.3,0.5-0.6,1-0.9,1.5c-0.2,0.5-0.4,1-0.6,1.5c-0.1,0.3-0.3,0.6-0.5,1c-0.2,0.4-0.3,0.8-0.5,1.2
		c-0.2,0.4-0.3,0.7-0.3,0.9c0,0.3,0.2,0.5,0.5,0.6c0.3,0.1,0.9,0.1,1.6,0.1H108.4L108.4,100.4z M145.8,112.8
		c0.2-0.7,0.5-1.1,0.8-1.3c0.3-0.2,1-0.5,1.9-0.9c0.9-0.4,1.6-0.9,2.1-1.3c0.7-0.8,1.9-2.6,3.4-5.5l3.7-7.1c1-1.9,1.7-3.4,2.2-4.5
		c0.5-1.1,1-2.3,1.4-3.7c0.4-1.3,0.6-2.7,0.6-3.9c0-1.9,0.6-3.4,1.7-4.6c1.1-1.1,2.9-1.7,5.4-1.7c2.3,0,4.2,0.7,5.8,2.2
		c1.6,1.5,3.2,3.4,4.8,5.8c0.3,0.5,1.3,2.3,2.9,5.4c1.6,3,3.2,6.1,4.8,9.2c1.6,3.1,2.8,5.4,3.6,6.9c0.3,0.6,0.9,1.1,1.7,1.5
		c0.8,0.4,1.6,0.8,2.2,1.2c0.6,0.4,1,1,1.2,1.8c0.4,1.6,0.6,3.2,0.6,4.8c0,1.3-0.4,2.4-1.2,3.1c-0.8,0.8-1.9,1.2-3.3,1.2
		c-1.5,0-2.5-0.3-3.1-0.8c-0.6-0.5-1.4-1.4-2.3-2.6c-0.9-1.2-1.8-1.9-2.5-2c-2-0.3-6.7-0.5-14-0.5c-6.6,0-10.8,0.2-12.6,0.5
		c-0.7,0.1-1.6,0.8-2.6,2c-1.1,1.2-2,2-2.8,2.6c-0.8,0.6-1.9,0.9-3.2,0.9c-1.1,0-1.9-0.4-2.6-1.1c-0.7-0.7-1-1.6-1-2.6
		C145.2,115.5,145.4,113.9,145.8,112.8L145.8,112.8z M174.3,106.6c-0.6-1.4-1.4-3-2.3-4.8c-1-1.8-1.6-2.8-1.9-3.3
		c-0.5-0.9-1-1.5-1.4-2c-0.4-0.5-0.9-0.7-1.4-0.7c-0.6,0-1.2,0.4-1.8,1.3c-0.6,0.9-1.1,1.7-1.4,2.4c-0.4,0.7-1.1,1.8-1.9,3.3
		c-0.8,1.5-1.5,2.8-1.9,4c-0.1,0.3-0.1,0.5-0.1,0.6c0,0.5,0.2,0.8,0.6,1c0.4,0.2,1,0.4,1.6,0.4h9.8c0.7,0,1.2-0.1,1.6-0.4
		c0.4-0.2,0.7-0.6,0.7-1.1C174.5,107.1,174.5,106.9,174.3,106.6L174.3,106.6z"/>
	<path class="st4" d="M39.5,144.2c-0.2-0.6-0.4-1-0.6-1.4c-0.2-0.4-0.4-0.5-0.7-0.5c-0.5,0-0.8,1.4-0.8,4.2c0,0.5,0,1.2,0,1.9
		c0,0.7,0,1.2,0,1.3c0,1.4,0.1,2.2,0.4,2.6c0.2,0.3,0.6,0.7,1.1,1c0.5,0.3,0.8,0.8,0.8,1.4c0,1.8-1.7,2.7-5.1,2.7
		c-2.9,0-4.4-0.8-4.4-2.5c0-0.6,0.1-0.9,0.2-1.1c0.2-0.2,0.4-0.4,0.8-0.5c0.4-0.2,0.7-0.4,0.9-0.8c0.2-0.3,0.4-0.9,0.4-1.7
		c0.2-2.4,0.3-4.7,0.4-6.8c0.1-2.2,0.2-4.7,0.2-7.7c0-2.5-0.2-4.2-0.5-5.1c-0.1-0.2-0.4-0.5-0.9-0.9c-0.5-0.4-0.8-0.7-1.1-1
		c-0.2-0.3-0.4-0.7-0.4-1.2c0-1.2,0.6-2,1.7-2.5c1.2-0.5,2.6-0.7,4.3-0.7c1,0,1.8,0.1,2.4,0.2c0.6,0.1,1,0.3,1.3,0.5
		c0.3,0.2,0.5,0.5,0.6,0.7c0.1,0.2,0.4,0.8,0.8,1.8c0.2,0.5,0.7,1.8,1.5,3.8c0.7,2,1.4,3.6,1.9,4.8c0.5,1.2,1.1,1.8,1.5,2
		c0.3,0,0.7-0.4,1.1-1.2c0.4-0.8,0.9-2,1.5-3.7c0.6-1.7,1-2.7,1.2-3.2c0.3-0.8,0.7-1.7,1.1-2.5c0.4-0.9,0.7-1.5,1.1-1.9
		c0.4-0.4,0.9-0.7,1.5-0.9c0.7-0.2,1.5-0.3,2.7-0.3c3.3,0,5,1,5,3c0,0.5-0.1,0.9-0.2,1.1c-0.1,0.2-0.4,0.6-0.9,1.2
		c-0.5,0.6-0.7,1-0.8,1.5c-0.1,0.5-0.2,1.8-0.3,3.9c-0.1,2-0.2,3.6-0.2,4.8c0-0.2,0.1,3.1,0.3,9.8c0,0.7,0.1,1.3,0.3,1.7
		c0.2,0.4,0.5,0.8,0.8,1.1c0.4,0.3,0.6,0.6,0.8,0.8c0.2,0.2,0.2,0.5,0.2,1c0,1.2-0.6,2-1.8,2.3c-1.2,0.4-2.7,0.5-4.4,0.5
		c-1.8,0-3.2-0.2-4.4-0.5c-1.2-0.3-1.8-1.1-1.8-2.2c0-0.4,0.1-0.7,0.2-0.9c0.1-0.3,0.4-0.5,0.7-0.9c0.3-0.3,0.5-0.6,0.7-0.8
		c0.1-0.2,0.2-0.5,0.3-0.8c0.1-0.3,0.1-1,0.2-2.1c0.1-1.1,0.1-2.2,0.1-3.1c0-2.2-0.2-3.3-0.7-3.3c-0.3,0-0.7,0.3-1,1
		c-0.3,0.7-0.7,1.4-1,2.4c-0.3,0.9-0.7,1.9-1,2.9c-0.1,0.2-0.4,1.1-0.8,2.6c-0.5,1.5-0.9,2.6-1.2,3.3c-0.4,0.8-0.7,1.1-1,1.1
		c-0.2,0-0.4-0.2-0.6-0.3c-0.2-0.2-0.4-0.7-0.8-1.5c-0.3-0.8-0.9-2.2-1.5-4.2L39.5,144.2L39.5,144.2z M69.8,140.6c0.6-1.7,1-3,1.3-4
		c0.3-1,0.6-2.1,0.8-3.2c0.2-1.2,0.4-2.3,0.4-3.4c0-1.7,0.3-3,1-4c0.7-1,1.7-1.5,3.2-1.5c1.3,0,2.5,0.6,3.4,1.9c1,1.3,1.9,3,2.8,5.1
		c0.3,0.7,1.4,3.6,3.4,8.7c1.9,5.1,3.2,8.5,3.7,10.1c0.3,0.8,0.5,1.3,0.8,1.6c0.3,0.3,0.7,0.5,1.1,0.7c0.4,0.2,0.7,0.3,0.9,0.5
		c0.2,0.2,0.2,0.6,0.2,1.2c0,0.9-0.4,1.6-1.1,2.1c-0.7,0.5-1.5,0.8-2.5,0.9c-0.9,0.1-2,0.2-3.1,0.2c-2.1,0-3.6,0-4.6-0.1
		c-1-0.1-1.8-0.3-2.4-0.8c-0.6-0.4-0.9-1.1-0.9-1.9c0-0.5,0.1-0.8,0.3-1.1c0.2-0.2,0.5-0.4,0.8-0.6c0.4-0.2,0.6-0.3,0.8-0.5
		c0.2-0.2,0.3-0.4,0.3-0.8c0-0.7-0.2-1.2-0.5-1.5c-0.3-0.3-0.9-0.5-1.7-0.6c-0.9-0.1-2.3-0.1-4.3-0.1c-1.1,0-1.8,0.1-2.2,0.4
		c-0.4,0.3-0.6,0.9-0.6,1.9c0,0.4,0.1,0.6,0.2,0.8c0.2,0.1,0.4,0.3,0.8,0.4c0.4,0.2,0.7,0.4,0.9,0.6c0.2,0.2,0.3,0.6,0.3,1.1
		c0,1.8-1.7,2.8-5.1,2.8c-1.6,0-2.7-0.1-3.5-0.3c-0.8-0.2-1.3-0.5-1.5-0.9c-0.2-0.4-0.4-0.8-0.4-1.4c0-0.6,0.1-1,0.3-1.2
		c0.2-0.2,0.6-0.4,1.3-0.8c0.6-0.3,1-0.7,1.3-1.1c0.4-0.7,1.1-2.3,2-4.8L69.8,140.6L69.8,140.6z M77.1,143.8c0.9,0,1.4-0.2,1.4-0.6
		c0-0.5-0.4-1.7-1.3-3.7c-0.3-0.7-0.6-1.3-0.8-1.8c-0.2-0.4-0.5-0.6-0.9-0.6c-0.2,0-0.5,0.2-0.7,0.6c-0.2,0.4-0.4,0.8-0.5,1.3
		c-0.1,0.4-0.3,0.9-0.4,1.3c-0.1,0.2-0.2,0.6-0.3,0.9c-0.1,0.4-0.2,0.7-0.3,1.1c-0.1,0.4-0.2,0.6-0.2,0.8c0,0.3,0.1,0.5,0.3,0.5
		c0.2,0.1,0.5,0.1,1,0.1H77.1L77.1,143.8z M107.9,124.6c1,0,1.9,0.2,2.6,0.4c0.8,0.3,1.5,0.7,2.3,1.1c0.8,0.4,1.3,0.7,1.5,0.7
		c0.3,0,0.5-0.1,0.8-0.2c0.3-0.1,0.5-0.2,0.7-0.2c0.5,0,1,0.3,1.5,1c0.5,0.6,0.9,1.6,1.3,2.7c0.3,1.2,0.5,2.6,0.5,4.2
		c0,1.3-0.3,2.5-0.9,3.4c-0.6,0.9-1.4,1.4-2.4,1.4c-0.8,0-1.3-0.2-1.7-0.7c-0.3-0.5-0.9-1.5-1.6-2.9c-0.7-1.5-1.5-2.6-2.3-3.3
		c-0.8-0.7-1.9-1.1-3.3-1.1c-0.8,0-1.5,0.3-2.1,0.9c-0.6,0.6-1,1.3-1.3,2.2c-0.3,0.9-0.4,1.8-0.4,2.7c0,1.7,0.2,3.3,0.5,4.8
		c0.3,1.5,0.8,2.8,1.5,4c0.7,1.2,1.5,2.1,2.4,2.7c0.9,0.6,2,1,3.2,1c1.3,0,2.3-0.2,3-0.6c0.7-0.4,1.4-0.9,1.9-1.6
		c0.6-0.6,1-0.9,1.2-0.9c0.5,0,0.8,0.3,1.1,0.8c0.3,0.6,0.4,1.2,0.4,1.8c0,0.7-0.2,1.5-0.5,2.5c-0.3,1-0.8,1.8-1.3,2.6
		c-0.5,0.7-1,1.1-1.6,1.1c-0.3,0-0.9,0.3-1.8,0.8c-0.9,0.5-1.8,1-2.7,1.3c-0.9,0.3-1.9,0.5-3.1,0.5c-2.4,0-4.6-0.7-6.6-2.2
		c-2-1.5-3.7-3.5-4.8-6.1c-1.2-2.5-1.8-5.3-1.8-8.3c0-2.2,0.4-4.4,1.1-6.4c0.7-2,1.8-3.8,3.1-5.3c1.3-1.5,2.8-2.7,4.4-3.5
		C104.6,125,106.2,124.6,107.9,124.6L107.9,124.6z M137.7,125.2c1,0,1.9-0.1,2.7-0.3c0.6-0.2,1.1-0.3,1.4-0.3c0.5,0,1,0.4,1.7,1.1
		c0.7,0.8,1.2,1.8,1.7,3.1c0.5,1.3,0.7,2.7,0.7,4.2c0,1.1-0.2,2.1-0.7,2.7c-0.5,0.7-1.1,1-2,1c-0.7,0-1.2-0.2-1.7-0.7
		c-0.4-0.5-0.8-1.2-1.2-2.1c-0.4-0.9-0.7-1.6-0.9-2c-0.2-0.4-0.5-0.6-0.9-0.6c-0.8,0-1.2,0.9-1.2,2.8V148c0,1.5,0.1,2.5,0.5,2.8
		c0.3,0.3,0.8,0.8,1.6,1.2c0.8,0.5,1.1,1.1,1.1,1.9c0,1-0.5,1.8-1.4,2.4c-0.9,0.7-2.9,1-5.7,1c-5.5,0-8.3-1.1-8.3-3.4
		c0-0.7,0.1-1.1,0.3-1.3c0.2-0.2,0.6-0.4,1.3-0.7c0.6-0.3,1.1-0.7,1.2-1.1c0.3-0.7,0.4-2.3,0.5-4.8l0.3-10V135c0-1.6-0.1-2.6-0.3-3
		c-0.2-0.4-0.5-0.6-0.8-0.6c-0.3,0-0.6,0.2-0.8,0.5c-0.2,0.3-0.6,1-1.1,1.9c-0.5,1-1,1.7-1.5,2.2c-0.5,0.5-1,0.7-1.7,0.7
		c-0.6,0-1.2-0.3-1.6-1c-0.4-0.6-0.6-1.4-0.6-2.3c0-1.2,0.2-2.5,0.7-3.9c0.5-1.4,1.1-2.6,1.8-3.5c0.7-0.9,1.4-1.4,2-1.4
		c0.1,0,0.5,0.1,1.3,0.3c1.1,0.2,2.1,0.3,3,0.3H137.7L137.7,125.2z M161.5,125.2c1.4,0,2.4-0.1,3.2-0.2c0.8-0.1,1.4-0.3,1.8-0.5
		c0.5-0.2,0.7-0.3,0.8-0.3c0.6,0,1.1,0.4,1.5,1.1c0.4,0.7,0.7,1.6,0.9,2.6c0.2,1,0.3,1.9,0.3,2.7c0,0.9-0.2,1.6-0.4,2.3
		c-0.3,0.6-0.7,1-1.4,1c-0.6,0-1-0.2-1.3-0.7c-0.3-0.5-0.6-1-0.9-1.6c-0.3-0.6-0.8-1-1.5-1.4c-0.7-0.4-1.9-0.6-3.4-0.6
		c-1.1,0-1.9,0.1-2.4,0.3c-0.5,0.2-0.8,0.5-0.9,1c-0.1,0.5-0.2,1.3-0.2,2.5v2.3c0,1,0,1.6,0.1,1.9c0.1,0.3,0.3,0.5,0.5,0.6
		c0.3,0.1,0.8,0.1,1.6,0.1c0.6,0,1-0.2,1.2-0.6c0.2-0.4,0.4-1.1,0.5-1.9c0.1-0.8,0.2-1.5,0.4-1.9c0.2-0.4,0.5-0.6,1.1-0.6
		c0.9,0,1.4,0.7,1.7,2.2c0.3,1.5,0.4,3,0.4,4.6c0,0.9-0.1,1.9-0.2,3c-0.1,1.1-0.3,2.1-0.7,2.9c-0.3,0.9-0.8,1.3-1.5,1.3
		c-0.5,0-0.8-0.2-0.9-0.5c-0.1-0.3-0.2-0.9-0.4-1.7c-0.1-0.8-0.3-1.5-0.6-1.9c-0.3-0.4-0.9-0.6-1.6-0.6c-0.6,0-1,0.3-1.2,0.8
		c-0.2,0.6-0.2,1.3-0.2,2.3c0,2.1,0.1,3.5,0.2,4.4c0.1,0.8,0.4,1.4,0.8,1.6c0.4,0.2,1.1,0.3,2.2,0.3h0.9c1.6,0,2.8-0.3,3.7-0.9
		c0.8-0.6,1.4-1.3,1.8-2.1c0.4-0.8,0.7-1.6,1.1-2.3c0.3-0.7,0.8-1.1,1.4-1.1c0.5,0,0.9,0.3,1.2,0.9c0.3,0.6,0.5,1.3,0.5,2
		c0,1-0.2,2.2-0.5,3.6c-0.4,1.4-0.8,2.5-1.3,3.5c-0.5,1-1,1.5-1.4,1.5c0,0-0.5-0.1-1.5-0.2c-1-0.2-2-0.2-2.9-0.2h-14.3
		c-1.5,0-2.3-0.6-2.3-1.9c0-0.7,0.3-1.2,0.8-1.6c0.6-0.4,1-0.8,1.2-1.1c0.3-0.4,0.4-1.2,0.5-2.6c0.2-4.1,0.3-6.8,0.3-7.9
		c0,0-0.1-2.5-0.2-7.6c0-1.4-0.2-2.4-0.4-3c-0.3-0.6-0.5-1-0.9-1.3c-0.3-0.2-0.6-0.5-1-0.8s-0.5-0.8-0.5-1.5c0-1.6,1-2.3,3-2.3
		c0.2,0,0.4,0,0.7,0c0.3,0,0.5,0,0.6,0H161.5L161.5,125.2z M176.2,132.1c0-0.8-0.1-1.3-0.4-1.6c-0.3-0.3-0.7-0.6-1.2-0.8
		c-0.5-0.2-0.9-0.5-1.2-0.7c-0.2-0.2-0.4-0.7-0.4-1.3c0-0.8,0.3-1.4,0.8-1.7c0.5-0.3,1.1-0.5,1.8-0.5c0.3,0,0.7,0,1.3,0
		c0.6,0,1,0,1.3,0c1.5,0,2.8-0.1,4.2-0.2c1.3-0.1,2.5-0.2,3.6-0.3c1.1-0.1,1.7-0.2,1.8-0.2c1.2,0,2.4,0.2,3.5,0.6
		c1.1,0.4,2.1,1,3,1.9c0.9,0.8,1.6,1.9,2.1,3.2c0.5,1.3,0.8,2.7,0.8,4.4c0,1.6-0.2,3.1-0.7,4.4c-0.5,1.3-1.2,2.4-2,3.3
		c-0.9,0.9-1.8,1.6-3,2c-1.1,0.4-2.3,0.7-3.5,0.7c-0.4,0-0.9,0-1.5-0.1c-0.7-0.1-1.2-0.1-1.5-0.1c-0.4,0-0.6,0.2-0.6,0.7v2.6
		c0,1.6,0.2,2.7,0.5,3.1c0.3,0.5,0.7,0.9,1.3,1.2c0.6,0.4,0.8,0.9,0.8,1.6c0,1.3-0.7,2.1-2.1,2.5c-1.4,0.4-2.9,0.6-4.4,0.6
		c-4.4,0-6.6-1-6.6-3c0-0.5,0.1-0.9,0.3-1.2c0.2-0.2,0.5-0.5,0.9-0.7c0.4-0.3,0.8-0.6,1-1c0.2-0.4,0.3-1,0.3-1.8V132.1L176.2,132.1z
		 M185.5,129.9c-0.6,0-1,0.1-1.1,0.3c-0.1,0.2-0.2,0.6-0.2,1.1v6.8c0,0.5,0,0.9,0.1,1.2c0.1,0.3,0.2,0.5,0.5,0.6
		c0.2,0.1,0.6,0.2,1,0.2c1.1,0,1.9-0.5,2.4-1.4c0.5-0.9,0.8-2.1,0.8-3.6c0-0.9-0.1-1.8-0.4-2.6c-0.3-0.8-0.6-1.4-1.2-1.9
		C186.9,130.1,186.3,129.9,185.5,129.9L185.5,129.9z"/>
</g>
</svg>
